<svg viewBox="0 0 48 48" fill="none" xmlns="http://www.w3.org/2000/svg">
  <defs>
    <linearGradient id="finoraIconBg" x1="0%" y1="0%" x2="100%" y2="100%">
      <stop offset="0%" stop-color="#5b6cff"/>
      <stop offset="100%" stop-color="#2dd4ff"/>
    </linearGradient>
    <linearGradient id="finoraIconAccent" x1="0%" y1="100%" x2="100%" y2="0%">
      <stop offset="0%" stop-color="#2dd4ff"/>
      <stop offset="100%" stop-color="#22c55e"/>
    </linearGradient>
  </defs>

  <!-- Background -->
  <rect width="48" height="48" rx="12" fill="url(#finoraIconBg)"/>

  <!-- Abstract "F" letterform - stylized and modern -->
  <path 
    d="M14 10h20c1.1 0 2 .9 2 2v2c0 1.1-.9 2-2 2H18v6h12c1.1 0 2 .9 2 2v2c0 1.1-.9 2-2 2H18v8c0 1.1-.9 2-2 2h-2c-1.1 0-2-.9-2-2V12c0-1.1.9-2 2-2z" 
    fill="white"
  />

  <!-- Growth trend line -->
  <path 
    d="M24 38L30 30L36 33L42 22" 
    stroke="url(#finoraIconAccent)" 
    stroke-width="3" 
    stroke-linecap="round" 
    stroke-linejoin="round"
  />

  <!-- Peak dot -->
  <circle cx="42" cy="22" r="3.5" fill="#22c55e" />
</svg>
