<svg viewBox="0 0 1200 630" fill="none" xmlns="http://www.w3.org/2000/svg">
  <defs>
    <linearGradient id="ogBg" x1="0%" y1="0%" x2="100%" y2="100%">
      <stop offset="0%" stop-color="#0f0f23"/>
      <stop offset="100%" stop-color="#1a1a3e"/>
    </linearGradient>
    <linearGradient id="ogPrimary" x1="0%" y1="0%" x2="100%" y2="100%">
      <stop offset="0%" stop-color="#5b6cff"/>
      <stop offset="100%" stop-color="#2dd4ff"/>
    </linearGradient>
    <linearGradient id="ogAccent" x1="0%" y1="100%" x2="100%" y2="0%">
      <stop offset="0%" stop-color="#38bdf8"/>
      <stop offset="100%" stop-color="#22c55e"/>
    </linearGradient>
  </defs>
  
  <!-- Background -->
  <rect width="1200" height="630" fill="url(#ogBg)"/>
  
  <!-- Decorative circles -->
  <circle cx="1100" cy="100" r="200" fill="url(#ogPrimary)" opacity="0.1"/>
  <circle cx="100" cy="530" r="150" fill="url(#ogAccent)" opacity="0.1"/>
  
  <!-- Logo Icon (canonical 48×48 paths, scaled 2× via transform) -->
  <g transform="translate(472, 175) scale(2)">
    <path d="M14 10h20c1.1 0 2 .9 2 2v2c0 1.1-.9 2-2 2H18v6h12c1.1 0 2 .9 2 2v2c0 1.1-.9 2-2 2H18v8c0 1.1-.9 2-2 2h-2c-1.1 0-2-.9-2-2V12c0-1.1.9-2 2-2z" fill="url(#ogPrimary)"/>
    <path d="M24 38L30 30L36 33L42 22" stroke="url(#ogAccent)" stroke-width="3" stroke-linecap="round" stroke-linejoin="round"/>
    <circle cx="42" cy="22" r="3.5" fill="#22c55e"/>
  </g>
  
  <!-- Brand Name -->
  <text x="600" y="320" text-anchor="middle" font-family="'Plus Jakarta Sans', 'Inter', system-ui, sans-serif" font-size="72" font-weight="800" fill="white">Finora</text>
  
  <!-- Tagline -->
  <text x="600" y="380" text-anchor="middle" font-family="'Plus Jakarta Sans', 'Inter', system-ui, sans-serif" font-size="24" font-weight="500" fill="#a1a1aa" letter-spacing="0.2em">SMART FINANCE</text>
  
  <!-- Description -->
  <text x="600" y="450" text-anchor="middle" font-family="'Inter', system-ui, -apple-system, sans-serif" font-size="20" fill="#71717a">Intelligente Finanzverwaltung für moderne Menschen</text>
  
  <!-- URL -->
  <text x="600" y="560" text-anchor="middle" font-family="'Inter', system-ui, -apple-system, sans-serif" font-size="18" fill="#5b6cff">finora.app</text>
</svg>
